<svg width="67" height="67" viewBox="0 0 67 67" fill="none" xmlns="http://www.w3.org/2000/svg">
<mask id="path-1-inside-1_50_6" fill="white">
<path d="M13.5259 2.00002C13.4391 1.99922 13.3534 2.02004 13.2766 2.0606C13.1998 2.10116 13.1343 2.16019 13.0861 2.23236C13.0378 2.30454 13.0082 2.3876 13 2.47405C12.9918 2.5605 13.0053 2.64764 13.0391 2.7276L13.3401 3.43817L22.5138 14.6604C22.5499 14.7449 22.6077 14.8184 22.6813 14.8734C22.7549 14.9284 22.8417 14.9632 22.9329 14.974C23.0242 14.9849 23.1167 14.9716 23.2011 14.9354C23.2856 14.8991 23.359 14.8413 23.4141 14.7677L32.2907 5.1041C32.349 5.02634 32.3846 4.93386 32.3933 4.83705C32.402 4.74023 32.3836 4.64289 32.3401 4.55595C32.2967 4.46901 32.2298 4.39588 32.1471 4.34478C32.0645 4.29367 31.9692 4.2666 31.872 4.2666L13.5259 2.00002ZM54.4375 2.98349L42.0061 15.5944C41.9721 15.674 41.9584 15.7608 41.9662 15.847C41.974 15.9332 42.0031 16.0162 42.0508 16.0884C42.0985 16.1606 42.1634 16.2199 42.2396 16.2609C42.3159 16.3019 42.4011 16.3233 42.4876 16.3233H62.734C62.8274 16.3233 62.919 16.2984 62.9995 16.2511C63.0799 16.2039 63.1463 16.1359 63.1917 16.0544C63.237 15.9728 63.2598 15.8806 63.2575 15.7873C63.2553 15.694 63.2282 15.603 63.179 15.5237L55.3627 2.91414C55.3122 2.83296 55.2404 2.76715 55.1552 2.72388C55.0699 2.6806 54.9745 2.6615 54.8791 2.66864C54.7838 2.67579 54.6922 2.70892 54.6144 2.76442C54.5365 2.81992 54.4754 2.89569 54.4375 2.98349ZM11.0214 2.91937L2.24278 15.5237C2.19355 15.603 2.16642 15.694 2.16418 15.7873C2.16195 15.8806 2.1847 15.9728 2.23008 16.0544C2.27546 16.1359 2.34182 16.2039 2.42228 16.2511C2.50274 16.2984 2.59438 16.3233 2.6877 16.3233H21.4774C21.564 16.3232 21.6492 16.3016 21.7254 16.2604C21.8017 16.2193 21.8665 16.1599 21.9141 16.0875C21.9617 16.0151 21.9906 15.9321 21.9982 15.8458C22.0058 15.7595 21.9918 15.6727 21.9576 15.5931L11.9374 2.98873C11.8987 2.90311 11.8104 2.78917 11.7335 2.73527C11.6565 2.68137 11.5937 2.68951 11.5 2.68241C11.4063 2.67532 11.3124 2.69358 11.2282 2.73527C11.144 2.77696 11.0726 2.84056 11.0214 2.91937ZM53.6201 2.24454L33.6757 4.2666C33.6284 4.26629 33.47 4.32003 33.4296 4.34478C33.3892 4.36952 33.3149 4.51361 33.2936 4.55595C33.2724 4.59829 33.2893 4.92683 33.2936 4.974C33.298 5.02117 33.3154 5.0662 33.344 5.10398L41.5582 14.9228C41.5849 14.9586 41.6206 14.9867 41.6616 15.0043C41.7026 15.0219 41.7475 15.0284 41.7919 15.0231C41.8362 15.0177 41.8784 15.0008 41.9141 14.974C41.9498 14.9473 41.9778 14.9115 41.9953 14.8704L53.4287 3.22656L53.8465 2.59262C53.8622 2.55516 53.8686 2.51446 53.8651 2.474C53.8616 2.43354 53.8483 2.39453 53.8265 2.36031C53.8046 2.32609 53.7747 2.29769 53.7395 2.27752C53.7042 2.25736 53.6646 2.24604 53.624 2.24454H53.6201ZM30.0418 49.6807L23.128 17.7834C23.0937 17.6871 23.128 17.5582 23.128 17.4297C23 17.0739 23.1531 17.3522 23.0508 17.3525L2.48819 17.5114C2.39699 17.5111 2.30756 17.5365 2.23008 17.5846C2.1526 17.6327 2.09018 17.7016 2.04995 17.7834C2.00971 17.8652 1.99327 17.9567 2.0025 18.0475C2.01173 18.1382 2.04626 18.2245 2.10215 18.2965L30.2846 53.5393C30.3802 53.6632 30.6698 53.782 30.6698 53.782C31.1101 54.2009 30.9496 54.0298 30.8792 53.6924C30.8412 53.5105 30.8707 53.6518 30.8412 53.5105C30.8166 53.3924 30.7894 53.1614 30.7375 53.0134L30.0418 49.6807ZM62.762 17.5114H47.0196C46.9179 17.5114 42.1338 17.543 42.0508 17.6018C41.9678 17.6606 42.04 17.8666 42.0063 17.9626L35.1062 50.0134C35.0523 50.1662 34.4921 53.0134 34.4242 53.3451C34.3939 53.4929 34.3506 53.7046 34.3506 53.7046L34.249 54.2009C34.249 54.2009 34.7052 53.6384 34.8044 53.5105L63.1481 18.2965C63.204 18.2245 63.2385 18.1382 63.2477 18.0475C63.2569 17.9567 63.2405 17.8652 63.2003 17.7834C63.16 17.7016 63.0976 17.6327 63.0201 17.5846C62.9426 17.5365 62.8532 17.5111 62.762 17.5114ZM33.4045 5.71453L41.4388 15.4858C41.4971 15.5636 41.5326 15.656 41.5414 15.7528C41.5501 15.8497 41.5317 15.947 41.4882 16.0339C41.4447 16.1209 41.3779 16.194 41.2952 16.2451C41.2125 16.2962 41.1173 16.3233 41.02 16.3233H23.9898C23.8926 16.3233 23.7973 16.2962 23.7146 16.2451C23.6319 16.194 23.5651 16.1209 23.5216 16.0339C23.4781 15.947 23.4597 15.8497 23.4684 15.7528C23.4772 15.656 23.5127 15.5636 23.571 15.4858L32.567 5.71453C32.6158 5.64952 32.679 5.59675 32.7517 5.56041C32.8244 5.52407 32.9045 5.50515 32.9858 5.50515C33.0671 5.50515 33.1472 5.52407 33.2199 5.56041C33.2926 5.59675 33.3558 5.64952 33.4045 5.71453ZM32.133 59.6984L23.2687 18.2089C23.2408 18.13 23.2323 18.0455 23.2439 17.9626C23.2554 17.8798 23.2867 17.8009 23.335 17.7326C23.3833 17.6642 23.4473 17.6085 23.5216 17.57C23.5959 17.5315 23.6783 17.5114 23.762 17.5114H41.4882C41.5719 17.5114 41.6543 17.5315 41.7286 17.57C41.8029 17.6085 41.8669 17.6642 41.9152 17.7326C41.9636 17.8009 41.9948 17.8798 42.0063 17.9626C42.0179 18.0455 42.0094 18.13 41.9816 18.2089L33.1236 59.6984C33.0874 59.8003 33.0206 59.8885 32.9322 59.951C32.8439 60.0134 32.7183 59.951 32.6101 59.951C32.502 59.951 32.4166 60.0134 32.3282 59.951C32.2399 59.8885 32.173 59.8003 32.1369 59.6984H32.133Z"/>
</mask>
<path d="M13.5259 2.00002C13.4391 1.99922 13.3534 2.02004 13.2766 2.0606C13.1998 2.10116 13.1343 2.16019 13.0861 2.23236C13.0378 2.30454 13.0082 2.3876 13 2.47405C12.9918 2.5605 13.0053 2.64764 13.0391 2.7276L13.3401 3.43817L22.5138 14.6604C22.5499 14.7449 22.6077 14.8184 22.6813 14.8734C22.7549 14.9284 22.8417 14.9632 22.9329 14.974C23.0242 14.9849 23.1167 14.9716 23.2011 14.9354C23.2856 14.8991 23.359 14.8413 23.4141 14.7677L32.2907 5.1041C32.349 5.02634 32.3846 4.93386 32.3933 4.83705C32.402 4.74023 32.3836 4.64289 32.3401 4.55595C32.2967 4.46901 32.2298 4.39588 32.1471 4.34478C32.0645 4.29367 31.9692 4.2666 31.872 4.2666L13.5259 2.00002ZM54.4375 2.98349L42.0061 15.5944C41.9721 15.674 41.9584 15.7608 41.9662 15.847C41.974 15.9332 42.0031 16.0162 42.0508 16.0884C42.0985 16.1606 42.1634 16.2199 42.2396 16.2609C42.3159 16.3019 42.4011 16.3233 42.4876 16.3233H62.734C62.8274 16.3233 62.919 16.2984 62.9995 16.2511C63.0799 16.2039 63.1463 16.1359 63.1917 16.0544C63.237 15.9728 63.2598 15.8806 63.2575 15.7873C63.2553 15.694 63.2282 15.603 63.179 15.5237L55.3627 2.91414C55.3122 2.83296 55.2404 2.76715 55.1552 2.72388C55.0699 2.6806 54.9745 2.6615 54.8791 2.66864C54.7838 2.67579 54.6922 2.70892 54.6144 2.76442C54.5365 2.81992 54.4754 2.89569 54.4375 2.98349ZM11.0214 2.91937L2.24278 15.5237C2.19355 15.603 2.16642 15.694 2.16418 15.7873C2.16195 15.8806 2.1847 15.9728 2.23008 16.0544C2.27546 16.1359 2.34182 16.2039 2.42228 16.2511C2.50274 16.2984 2.59438 16.3233 2.6877 16.3233H21.4774C21.564 16.3232 21.6492 16.3016 21.7254 16.2604C21.8017 16.2193 21.8665 16.1599 21.9141 16.0875C21.9617 16.0151 21.9906 15.9321 21.9982 15.8458C22.0058 15.7595 21.9918 15.6727 21.9576 15.5931L11.9374 2.98873C11.8987 2.90311 11.8104 2.78917 11.7335 2.73527C11.6565 2.68137 11.5937 2.68951 11.5 2.68241C11.4063 2.67532 11.3124 2.69358 11.2282 2.73527C11.144 2.77696 11.0726 2.84056 11.0214 2.91937ZM53.6201 2.24454L33.6757 4.2666C33.6284 4.26629 33.47 4.32003 33.4296 4.34478C33.3892 4.36952 33.3149 4.51361 33.2936 4.55595C33.2724 4.59829 33.2893 4.92683 33.2936 4.974C33.298 5.02117 33.3154 5.0662 33.344 5.10398L41.5582 14.9228C41.5849 14.9586 41.6206 14.9867 41.6616 15.0043C41.7026 15.0219 41.7475 15.0284 41.7919 15.0231C41.8362 15.0177 41.8784 15.0008 41.9141 14.974C41.9498 14.9473 41.9778 14.9115 41.9953 14.8704L53.4287 3.22656L53.8465 2.59262C53.8622 2.55516 53.8686 2.51446 53.8651 2.474C53.8616 2.43354 53.8483 2.39453 53.8265 2.36031C53.8046 2.32609 53.7747 2.29769 53.7395 2.27752C53.7042 2.25736 53.6646 2.24604 53.624 2.24454H53.6201ZM30.0418 49.6807L23.128 17.7834C23.0937 17.6871 23.128 17.5582 23.128 17.4297C23 17.0739 23.1531 17.3522 23.0508 17.3525L2.48819 17.5114C2.39699 17.5111 2.30756 17.5365 2.23008 17.5846C2.1526 17.6327 2.09018 17.7016 2.04995 17.7834C2.00971 17.8652 1.99327 17.9567 2.0025 18.0475C2.01173 18.1382 2.04626 18.2245 2.10215 18.2965L30.2846 53.5393C30.3802 53.6632 30.6698 53.782 30.6698 53.782C31.1101 54.2009 30.9496 54.0298 30.8792 53.6924C30.8412 53.5105 30.8707 53.6518 30.8412 53.5105C30.8166 53.3924 30.7894 53.1614 30.7375 53.0134L30.0418 49.6807ZM62.762 17.5114H47.0196C46.9179 17.5114 42.1338 17.543 42.0508 17.6018C41.9678 17.6606 42.04 17.8666 42.0063 17.9626L35.1062 50.0134C35.0523 50.1662 34.4921 53.0134 34.4242 53.3451C34.3939 53.4929 34.3506 53.7046 34.3506 53.7046L34.249 54.2009C34.249 54.2009 34.7052 53.6384 34.8044 53.5105L63.1481 18.2965C63.204 18.2245 63.2385 18.1382 63.2477 18.0475C63.2569 17.9567 63.2405 17.8652 63.2003 17.7834C63.16 17.7016 63.0976 17.6327 63.0201 17.5846C62.9426 17.5365 62.8532 17.5111 62.762 17.5114ZM33.4045 5.71453L41.4388 15.4858C41.4971 15.5636 41.5326 15.656 41.5414 15.7528C41.5501 15.8497 41.5317 15.947 41.4882 16.0339C41.4447 16.1209 41.3779 16.194 41.2952 16.2451C41.2125 16.2962 41.1173 16.3233 41.02 16.3233H23.9898C23.8926 16.3233 23.7973 16.2962 23.7146 16.2451C23.6319 16.194 23.5651 16.1209 23.5216 16.0339C23.4781 15.947 23.4597 15.8497 23.4684 15.7528C23.4772 15.656 23.5127 15.5636 23.571 15.4858L32.567 5.71453C32.6158 5.64952 32.679 5.59675 32.7517 5.56041C32.8244 5.52407 32.9045 5.50515 32.9858 5.50515C33.0671 5.50515 33.1472 5.52407 33.2199 5.56041C33.2926 5.59675 33.3558 5.64952 33.4045 5.71453ZM32.133 59.6984L23.2687 18.2089C23.2408 18.13 23.2323 18.0455 23.2439 17.9626C23.2554 17.8798 23.2867 17.8009 23.335 17.7326C23.3833 17.6642 23.4473 17.6085 23.5216 17.57C23.5959 17.5315 23.6783 17.5114 23.762 17.5114H41.4882C41.5719 17.5114 41.6543 17.5315 41.7286 17.57C41.8029 17.6085 41.8669 17.6642 41.9152 17.7326C41.9636 17.8009 41.9948 17.8798 42.0063 17.9626C42.0179 18.0455 42.0094 18.13 41.9816 18.2089L33.1236 59.6984C33.0874 59.8003 33.0206 59.8885 32.9322 59.951C32.8439 60.0134 32.7183 59.951 32.6101 59.951C32.502 59.951 32.4166 60.0134 32.3282 59.951C32.2399 59.8885 32.173 59.8003 32.1369 59.6984H32.133Z" fill="white"/>
<path d="M12.7913 2.31316L12.5578 1.87105L12.5578 1.87105L12.7913 2.31316ZM13.0452 1.7526C12.8754 1.75104 12.7079 1.79175 12.5578 1.87105L13.0248 2.75527C13.0283 2.75346 13.0321 2.75252 13.036 2.75256L13.0452 1.7526ZM12.5578 1.87105C12.4076 1.95035 12.2796 2.06577 12.1852 2.20688L13.0163 2.76297C13.0185 2.75973 13.0214 2.75709 13.0248 2.75527L12.5578 1.87105ZM12.1852 2.20688C12.0907 2.348 12.0329 2.5104 12.0169 2.67943L13.0124 2.77379C13.0128 2.76991 13.0141 2.76619 13.0163 2.76297L12.1852 2.20688ZM12.0169 2.67943C12.0009 2.84847 12.0272 3.01884 12.0934 3.17518L13.0142 2.78514C13.0127 2.78156 13.0121 2.77766 13.0124 2.77379L12.0169 2.67943ZM21.5688 15.1099C21.6396 15.2751 21.7526 15.4187 21.8965 15.5263L22.4955 14.7256C22.4922 14.7231 22.4896 14.7198 22.488 14.7161L21.5688 15.1099ZM21.8965 15.5263C22.0403 15.634 22.21 15.7018 22.3884 15.7231L22.5068 14.7301C22.5027 14.7296 22.4988 14.7281 22.4955 14.7256L21.8965 15.5263ZM22.3884 15.7231C22.5668 15.7443 22.7477 15.7183 22.9128 15.6475L22.5188 14.7284C22.515 14.73 22.5109 14.7306 22.5068 14.7301L22.3884 15.7231ZM22.9128 15.6475C23.078 15.5767 23.2215 15.4636 23.3291 15.3198L22.5283 14.7209C22.5258 14.7242 22.5226 14.7268 22.5188 14.7284L22.9128 15.6475ZM33.1589 5.07475C33.1722 5.05694 33.1939 5.02587 33.2136 4.98375C33.2315 4.94567 33.2635 4.86576 33.2615 4.75945C33.2591 4.63503 33.2094 4.5023 33.1022 4.40213C33.0094 4.31537 32.9094 4.28685 32.8579 4.27643C32.7617 4.257 32.6833 4.27121 32.6669 4.27402C32.6368 4.27917 32.612 4.28601 32.5973 4.29034C32.5453 4.30566 32.4887 4.32955 32.4517 4.34545C32.3678 4.38155 32.2476 4.43753 32.1451 4.48416C32.0329 4.53515 31.9365 4.57751 31.8719 4.60139C31.8331 4.61574 31.8367 4.61168 31.8634 4.60729C31.8638 4.60723 31.9467 4.5902 32.0521 4.61985C32.1135 4.63712 32.2204 4.6811 32.3055 4.79142C32.3969 4.90974 32.4144 5.04038 32.4059 5.13451L31.41 5.0447C31.4009 5.14489 31.4197 5.28043 31.514 5.40258C31.6022 5.51673 31.7137 5.56346 31.7813 5.58249C31.8992 5.61565 32.0009 5.5981 32.0254 5.59408C32.1004 5.58176 32.1738 5.55595 32.219 5.53924C32.3222 5.50102 32.45 5.44402 32.559 5.39448C32.6775 5.34057 32.7754 5.29481 32.8469 5.26405C32.8877 5.2465 32.8931 5.24567 32.8801 5.24949C32.8752 5.25095 32.8587 5.25574 32.8353 5.25974C32.8256 5.26139 32.7525 5.27534 32.6598 5.25663C32.61 5.24657 32.5114 5.21864 32.4194 5.13273C32.3132 5.03341 32.264 4.90177 32.2616 4.7787C32.2596 4.67376 32.2912 4.59546 32.3082 4.55927C32.3271 4.51903 32.3474 4.49011 32.3589 4.47474L33.1589 5.07475ZM32.4059 5.13451C32.423 4.94521 32.387 4.7549 32.302 4.5849L31.4076 5.03212C31.4095 5.03601 31.4104 5.04037 31.41 5.0447L32.4059 5.13451ZM32.302 4.5849C32.217 4.41491 32.0864 4.27193 31.9247 4.17201L31.399 5.02266C31.4026 5.02495 31.4056 5.02822 31.4076 5.03212L32.302 4.5849ZM31.9247 4.17201C32.0188 4.23017 32.0984 4.32439 32.1352 4.44579C32.1683 4.55464 32.1553 4.64668 32.1434 4.69663C32.1222 4.78651 32.0803 4.84186 32.0783 4.84461C32.0645 4.86396 32.0616 4.8632 32.0919 4.83424C32.1441 4.78441 32.2267 4.71469 32.3248 4.63364C32.4145 4.55956 32.5209 4.47305 32.5947 4.40783C32.6266 4.3796 32.6781 4.33323 32.7191 4.28418C32.7309 4.27008 32.749 4.24737 32.7673 4.21825C32.7811 4.1963 32.8189 4.13401 32.8373 4.04544C32.8573 3.94838 32.8644 3.7393 32.6887 3.57439C32.5464 3.4409 32.3832 3.43724 32.3401 3.43724V4.43724C32.3031 4.43724 32.1441 4.43477 32.0044 4.3036C31.8311 4.141 31.8388 3.93534 31.858 3.84275C31.8754 3.75865 31.9107 3.70189 31.9204 3.68643C31.9346 3.6638 31.9471 3.64856 31.9519 3.64284C31.9649 3.62729 31.966 3.6289 31.9324 3.65856C31.8752 3.70913 31.7904 3.77805 31.688 3.86262C31.5941 3.9402 31.4837 4.03231 31.4013 4.11103C31.3643 4.14635 31.3086 4.20156 31.2641 4.26399C31.2468 4.28828 31.195 4.36195 31.1703 4.46637C31.1568 4.52359 31.1437 4.62195 31.1783 4.7361C31.2167 4.8628 31.2997 4.9613 31.399 5.02266L31.9247 4.17201ZM13.5259 2.00002L13.6485 1.00757L13.592 1.00059L13.5351 1.00006L13.5259 2.00002ZM13.0391 2.7276L13.9599 2.33757L13.9599 2.33755L13.0391 2.7276ZM13.3401 3.43817L12.4193 3.82819L12.4752 3.96013L12.5659 4.07107L13.3401 3.43817ZM22.5138 14.6604L23.4329 14.2666L23.3773 14.1368L23.288 14.0275L22.5138 14.6604ZM23.4141 14.7677L22.6776 14.0913L22.6435 14.1284L22.6132 14.1689L23.4141 14.7677ZM32.2907 5.1041L33.0272 5.78058L33.0608 5.74393L33.0907 5.70411L32.2907 5.1041ZM31.872 4.2666L31.7493 5.25906L31.8104 5.2666H31.872V4.2666ZM54.4375 2.98349L55.1497 3.68552L55.2816 3.55173L55.3559 3.3792L54.4375 2.98349ZM42.0061 15.5944L41.2939 14.8924L41.1608 15.0274L41.0863 15.2019L42.0061 15.5944ZM42.4876 16.3233L42.4876 15.3233L42.4874 15.3233L42.4876 16.3233ZM62.734 16.3233L62.7345 15.3233H62.734V16.3233ZM63.179 15.5237L62.329 16.0506L62.3294 16.0512L63.179 15.5237ZM55.3627 2.91414L56.2127 2.38728L56.2118 2.38593L55.3627 2.91414ZM11.0214 2.91937L11.842 3.49089L11.8513 3.47751L11.8602 3.46383L11.0214 2.91937ZM2.24278 15.5237L1.42219 14.9522L1.40713 14.9738L1.39323 14.9962L2.24278 15.5237ZM2.6877 16.3233L2.6877 15.3233L2.68726 15.3233L2.6877 16.3233ZM21.4774 16.3233L21.4774 17.3233L21.4785 17.3233L21.4774 16.3233ZM21.9576 15.5931L22.8763 15.1981L22.8235 15.0754L22.7404 14.9708L21.9576 15.5931ZM11.9374 2.98873L11.0262 3.40068L11.0774 3.51383L11.1547 3.61102L11.9374 2.98873ZM53.6201 2.24454V1.24454H53.5696L53.5193 1.24964L53.6201 2.24454ZM33.6757 4.2666L33.6693 5.26658L33.7231 5.26693L33.7766 5.2615L33.6757 4.2666ZM33.344 5.10398L32.5463 5.7071L32.5612 5.72675L32.577 5.74563L33.344 5.10398ZM41.5582 14.9228L42.3598 14.3249L42.3431 14.3025L42.3252 14.2811L41.5582 14.9228ZM41.9953 14.8704L41.2817 14.1698L41.1493 14.3047L41.0752 14.4787L41.9953 14.8704ZM53.4287 3.22656L54.1422 3.92719L54.2103 3.85792L54.2637 3.77685L53.4287 3.22656ZM53.8465 2.59262L54.6815 3.14291L54.7329 3.06491L54.769 2.97873L53.8465 2.59262ZM53.624 2.24454L53.6611 1.24522L53.6426 1.24454H53.624V2.24454ZM30.0418 49.6807L31.0207 49.4764L31.0191 49.4689L30.0418 49.6807ZM23.128 17.7834L24.1053 17.5716L24.0916 17.5083L24.0699 17.4474L23.128 17.7834ZM23.128 17.4297H24.128V17.2554L24.069 17.0913L23.128 17.4297ZM23.0508 17.3525L23.0482 16.3525L23.0431 16.3525L23.0508 17.3525ZM2.48819 17.5114L2.48533 18.5114L2.49591 18.5114L2.48819 17.5114ZM2.10215 18.2965L1.312 18.9095L1.31654 18.9153L1.32116 18.9211L2.10215 18.2965ZM30.2846 53.5393L31.076 52.9281L31.0709 52.9214L31.0656 52.9148L30.2846 53.5393ZM30.6698 53.782L31.3591 53.0575L31.2231 52.9281L31.0495 52.8569L30.6698 53.782ZM30.8792 53.6924L29.9003 53.8967L29.9003 53.8968L30.8792 53.6924ZM30.8412 53.5105L31.8201 53.3062L31.8201 53.3062L30.8412 53.5105ZM30.7375 53.0134L29.7586 53.2177L29.772 53.2822L29.7938 53.3444L30.7375 53.0134ZM62.762 17.5114L62.762 18.5114L62.7649 18.5114L62.762 17.5114ZM47.0196 17.5114L47.0194 18.5114H47.0196V17.5114ZM35.1062 50.0134L36.0492 50.3464L36.0704 50.2862L36.0838 50.2238L35.1062 50.0134ZM34.4242 53.3451L33.4445 53.1445L33.4445 53.1445L34.4242 53.3451ZM34.3506 53.7046L35.3303 53.9051L35.3303 53.9051L34.3506 53.7046ZM34.249 54.2009L33.2693 54.0003L35.0256 54.8308L34.249 54.2009ZM34.8044 53.5105L34.0254 52.8835L34.0198 52.8904L34.0144 52.8975L34.8044 53.5105ZM63.1481 18.2965L63.9271 18.9236L63.9327 18.9166L63.9382 18.9095L63.1481 18.2965ZM33.4045 5.71453L32.6046 6.31453L32.6179 6.33239L32.6321 6.34964L33.4045 5.71453ZM41.4388 15.4858L42.2388 14.8858L42.2254 14.8679L42.2112 14.8507L41.4388 15.4858ZM23.9898 16.3233V17.3233V16.3233ZM23.571 15.4858L22.8353 14.8085L22.8012 14.8455L22.771 14.8858L23.571 15.4858ZM32.567 5.71453L33.3027 6.39185L33.3368 6.35481L33.367 6.31453L32.567 5.71453ZM32.133 59.6984L31.155 59.9073L31.324 60.6984H32.133V59.6984ZM23.2687 18.2089L24.2466 17.9999L24.2332 17.937L24.2118 17.8764L23.2687 18.2089ZM23.762 17.5114L23.762 16.5114L23.7614 16.5114L23.762 17.5114ZM41.4882 17.5114L41.4888 16.5114H41.4882V17.5114ZM41.9816 18.2089L41.0385 17.8764L41.017 17.9371L41.0036 18.0001L41.9816 18.2089ZM33.1236 59.6984L34.0661 60.0326L34.0879 59.971L34.1015 59.9072L33.1236 59.6984ZM32.1369 59.6984L33.0794 59.3642L32.8433 58.6984H32.1369V59.6984ZM13.5351 1.00006C13.2824 0.997738 13.033 1.05833 12.8096 1.17637L13.7437 2.94483C13.6738 2.98175 13.5958 3.00071 13.5167 2.99998L13.5351 1.00006ZM12.8096 1.17637C12.5861 1.29443 12.3955 1.46624 12.2549 1.67628L13.9172 2.78845C13.8732 2.85414 13.8136 2.90789 13.7437 2.94483L12.8096 1.17637ZM12.2549 1.67628C12.1144 1.88635 12.0283 2.12809 12.0045 2.3797L13.9955 2.5684C13.9881 2.64711 13.9612 2.72273 13.9172 2.78845L12.2549 1.67628ZM12.0045 2.3797C11.9806 2.63131 12.0197 2.88491 12.1183 3.11765L13.9599 2.33755C13.9908 2.41036 14.003 2.4897 13.9955 2.5684L12.0045 2.3797ZM12.1183 3.11763L12.4193 3.82819L14.2609 3.04814L13.9599 2.33757L12.1183 3.11763ZM12.5659 4.07107L21.7395 15.2933L23.288 14.0275L14.1143 2.80527L12.5659 4.07107ZM21.5946 15.0543C21.6999 15.3001 21.8681 15.5139 22.0823 15.6741L23.2803 14.0727C23.3474 14.1228 23.4 14.1897 23.4329 14.2666L21.5946 15.0543ZM22.0823 15.6741C22.2965 15.8343 22.549 15.9353 22.8146 15.967L23.0513 13.9811C23.1343 13.991 23.2134 14.0226 23.2803 14.0727L22.0823 15.6741ZM22.8146 15.967C23.0801 15.9987 23.3494 15.9598 23.5952 15.8544L22.8071 14.0163C22.884 13.9833 22.9682 13.9712 23.0513 13.9811L22.8146 15.967ZM23.5952 15.8544C23.841 15.7491 24.0547 15.5808 24.2149 15.3666L22.6132 14.1689C22.6633 14.1019 22.7302 14.0492 22.8071 14.0163L23.5952 15.8544ZM24.1505 15.4442L33.0272 5.78058L31.5543 4.42762L22.6776 14.0913L24.1505 15.4442ZM33.0907 5.70411C33.2605 5.47777 33.3638 5.20862 33.3892 4.92685L31.3973 4.74724C31.4053 4.65909 31.4376 4.5749 31.4907 4.50409L33.0907 5.70411ZM33.3892 4.92685C33.4147 4.64508 33.3611 4.36178 33.2346 4.10873L31.4457 5.00317C31.4061 4.92401 31.3894 4.83539 31.3973 4.74724L33.3892 4.92685ZM33.2346 4.10873C33.108 3.8557 32.9136 3.64287 32.6729 3.49412L31.6214 5.19543C31.5461 5.14889 31.4853 5.08231 31.4457 5.00317L33.2346 4.10873ZM32.6729 3.49412C32.4322 3.34539 32.1549 3.2666 31.872 3.2666V5.2666C31.7835 5.2666 31.6967 5.24195 31.6214 5.19543L32.6729 3.49412ZM31.9946 3.27415L13.6485 1.00757L13.4033 2.99248L31.7493 5.25906L31.9946 3.27415ZM53.7254 2.28147L41.2939 14.8924L42.7182 16.2964L55.1497 3.68552L53.7254 2.28147ZM41.0863 15.2019C40.9874 15.4336 40.9476 15.6862 40.9703 15.9372L42.9621 15.7569C42.9692 15.8354 42.9568 15.9144 42.9258 15.9869L41.0863 15.2019ZM40.9703 15.9372C40.993 16.1881 41.0776 16.4294 41.2164 16.6396L42.8851 15.5371C42.9286 15.6029 42.955 15.6784 42.9621 15.7569L40.9703 15.9372ZM41.2164 16.6396C41.3553 16.8498 41.5442 17.0223 41.7661 17.1416L42.7132 15.3801C42.7826 15.4174 42.8417 15.4714 42.8851 15.5371L41.2164 16.6396ZM41.7661 17.1416C41.9879 17.2609 42.2359 17.3234 42.4879 17.3233L42.4874 15.3233C42.5662 15.3233 42.6438 15.3428 42.7132 15.3801L41.7661 17.1416ZM42.4876 17.3233H62.734V15.3233H42.4876V17.3233ZM62.7336 17.3233C63.0052 17.3234 63.2719 17.2509 63.5061 17.1133L62.4928 15.389C62.5661 15.3459 62.6495 15.3233 62.7345 15.3233L62.7336 17.3233ZM63.5061 17.1133C63.7403 16.9757 63.9334 16.778 64.0655 16.5406L62.3178 15.5681C62.3591 15.4939 62.4195 15.432 62.4928 15.389L63.5061 17.1133ZM64.0655 16.5406C64.1975 16.3033 64.2638 16.0349 64.2573 15.7634L62.2578 15.8113C62.2558 15.7263 62.2765 15.6424 62.3178 15.5681L64.0655 16.5406ZM64.2573 15.7634C64.2508 15.4919 64.1718 15.227 64.0285 14.9962L62.3294 16.0512C62.2846 15.979 62.2599 15.8962 62.2578 15.8113L64.2573 15.7634ZM64.0289 14.9969L56.2127 2.38728L54.5128 3.44099L62.329 16.0506L64.0289 14.9969ZM56.2118 2.38593C56.0649 2.14967 55.856 1.95815 55.6079 1.83219L54.7025 3.61556C54.6249 3.57616 54.5596 3.51625 54.5136 3.44234L56.2118 2.38593ZM55.6079 1.83219C55.3597 1.70624 55.0819 1.65064 54.8044 1.67144L54.9539 3.66585C54.8671 3.67235 54.7802 3.65496 54.7025 3.61556L55.6079 1.83219ZM54.8044 1.67144C54.5269 1.69224 54.2604 1.78865 54.0338 1.95018L55.1949 3.57865C55.124 3.62918 55.0407 3.65934 54.9539 3.66585L54.8044 1.67144ZM54.0338 1.95018C53.8072 2.11174 53.6293 2.33227 53.5192 2.58779L55.3559 3.3792C55.3215 3.45911 55.2658 3.5281 55.1949 3.57865L54.0338 1.95018ZM10.2008 2.34785L1.42219 14.9522L3.06337 16.0953L11.842 3.49089L10.2008 2.34785ZM1.39323 14.9962C1.24994 15.227 1.17097 15.4919 1.16447 15.7634L3.1639 15.8113C3.16186 15.8962 3.13716 15.979 3.09233 16.0512L1.39323 14.9962ZM1.16447 15.7634C1.15797 16.0349 1.22418 16.3033 1.35626 16.5406L3.1039 15.5681C3.14522 15.6424 3.16593 15.7263 3.1639 15.8113L1.16447 15.7634ZM1.35626 16.5406C1.48833 16.778 1.68146 16.9757 1.91565 17.1133L2.92891 15.389C3.00218 15.432 3.06259 15.4939 3.1039 15.5681L1.35626 16.5406ZM1.91565 17.1133C2.14981 17.2509 2.41652 17.3234 2.68815 17.3233L2.68726 15.3233C2.77224 15.3233 2.85567 15.3459 2.92891 15.389L1.91565 17.1133ZM2.6877 17.3233H21.4774V15.3233H2.6877V17.3233ZM21.4785 17.3233C21.7307 17.323 21.9787 17.2601 22.2006 17.1404L21.2503 15.3805C21.3197 15.3431 21.3973 15.3234 21.4762 15.3233L21.4785 17.3233ZM22.2006 17.1404C22.4224 17.0206 22.611 16.8476 22.7496 16.637L21.0786 15.538C21.1219 15.4721 21.1809 15.418 21.2503 15.3805L22.2006 17.1404ZM22.7496 16.637C22.8881 16.4264 22.9722 16.1846 22.9943 15.9335L21.002 15.758C21.0089 15.6795 21.0352 15.6039 21.0786 15.538L22.7496 16.637ZM22.9943 15.9335C23.0164 15.6824 22.9759 15.4297 22.8763 15.1981L21.0389 15.9881C21.0078 15.9156 20.9951 15.8366 21.002 15.758L22.9943 15.9335ZM22.7404 14.9708L12.7202 2.36643L11.1547 3.61102L21.1748 16.2154L22.7404 14.9708ZM12.8486 2.57677C12.7479 2.35404 12.5532 2.08846 12.3071 1.91613L11.1599 3.55442C11.1205 3.52683 11.0966 3.50391 11.0872 3.49461C11.0763 3.48381 11.0702 3.47636 11.0672 3.47266C11.0641 3.46878 11.0603 3.46359 11.0552 3.45563C11.051 3.44889 11.0398 3.43063 11.0262 3.40068L12.8486 2.57677ZM12.3071 1.91613C12.1246 1.78834 11.9392 1.7277 11.7723 1.70249C11.7037 1.69214 11.6448 1.68891 11.6183 1.6875C11.5795 1.68543 11.5841 1.68592 11.5755 1.68527L11.4245 3.67956C11.4628 3.68246 11.5104 3.68458 11.5121 3.68468C11.5261 3.68542 11.5053 3.68485 11.4737 3.68009C11.4371 3.67455 11.3834 3.66328 11.3215 3.6397C11.259 3.61585 11.2047 3.58578 11.1599 3.55442L12.3071 1.91613ZM11.5755 1.68527C11.3028 1.66462 11.0296 1.71776 10.7845 1.8391L11.6719 3.63144C11.5953 3.66939 11.5098 3.68602 11.4245 3.67956L11.5755 1.68527ZM10.7845 1.8391C10.5394 1.96046 10.3315 2.14554 10.1826 2.37491L11.8602 3.46383C11.8136 3.53557 11.7486 3.59347 11.6719 3.63144L10.7845 1.8391ZM53.5193 1.24964L33.5749 3.2717L33.7766 5.2615L53.721 3.23944L53.5193 1.24964ZM33.6822 3.26662C33.536 3.26568 33.4118 3.29742 33.3868 3.30351C33.3331 3.31654 33.2821 3.33183 33.24 3.34558C33.1955 3.3601 33.0403 3.41057 32.9072 3.49209L33.9521 5.19746C33.9097 5.22341 33.8772 5.23844 33.87 5.24176C33.8582 5.2472 33.8511 5.25008 33.8501 5.25045C33.8483 5.25117 33.8526 5.24948 33.8602 5.247C33.8685 5.24426 33.8685 5.24463 33.8592 5.24691C33.8546 5.24803 33.8397 5.25158 33.8174 5.25529C33.8026 5.25776 33.7461 5.26708 33.6693 5.26658L33.6822 3.26662ZM32.9072 3.49209C32.714 3.61048 32.6023 3.77131 32.5888 3.7897C32.548 3.84522 32.5152 3.89851 32.494 3.93426C32.4502 4.00823 32.4142 4.07881 32.3998 4.10758L34.1875 5.00432C34.1943 4.99075 34.2061 4.96812 34.2149 4.95327C34.2201 4.94462 34.2147 4.9546 34.1999 4.97482C34.1924 4.98501 34.174 5.00945 34.1455 5.04004C34.1308 5.05587 34.1091 5.07806 34.0806 5.103C34.0531 5.12703 34.01 5.16195 33.9521 5.19746L32.9072 3.49209ZM32.3998 4.10758C32.3093 4.28796 32.2949 4.46116 32.2944 4.46602C32.2882 4.51812 32.2858 4.56538 32.2847 4.59697C32.2824 4.66286 32.2831 4.73158 32.2843 4.78582C32.2867 4.88989 32.2927 5.00924 32.2978 5.06511L34.2895 4.88289C34.2904 4.89275 34.2904 4.89496 34.2897 4.88291C34.2891 4.87409 34.2884 4.86143 34.2876 4.84592C34.2861 4.81455 34.2846 4.77666 34.2838 4.7405C34.2829 4.70143 34.2831 4.67712 34.2834 4.66802C34.2837 4.66212 34.2834 4.6764 34.2804 4.70225C34.2788 4.71507 34.2751 4.74387 34.2668 4.78159C34.2626 4.80104 34.2557 4.82916 34.2451 4.86273C34.235 4.89453 34.2172 4.94513 34.1875 5.00432L32.3998 4.10758ZM32.2978 5.06511C32.3191 5.29813 32.4052 5.5205 32.5463 5.7071L34.1416 4.50086C34.2256 4.61189 34.2768 4.74421 34.2895 4.88289L32.2978 5.06511ZM32.577 5.74563L40.7912 15.5644L42.3252 14.2811L34.111 4.46233L32.577 5.74563ZM40.7566 15.5207C40.8885 15.6974 41.0646 15.8363 41.2672 15.9232L42.0559 14.0853C42.1765 14.1371 42.2813 14.2197 42.3598 14.3249L40.7566 15.5207ZM41.2672 15.9232C41.4698 16.0102 41.6918 16.0422 41.9108 16.016L41.673 14.0302C41.8033 14.0145 41.9354 14.0336 42.0559 14.0853L41.2672 15.9232ZM41.9108 16.016C42.1297 15.9897 42.3379 15.9062 42.5142 15.7739L41.3139 14.1742C41.4188 14.0954 41.5427 14.0458 41.673 14.0302L41.9108 16.016ZM42.5142 15.7739C42.6907 15.6415 42.829 15.465 42.9154 15.2622L41.0752 14.4787C41.1266 14.358 41.2089 14.253 41.3139 14.1742L42.5142 15.7739ZM42.7088 15.5711L54.1422 3.92719L52.7152 2.52593L41.2817 14.1698L42.7088 15.5711ZM54.2637 3.77685L54.6815 3.14291L53.0115 2.04233L52.5937 2.67627L54.2637 3.77685ZM54.769 2.97873C54.8471 2.79216 54.8787 2.58945 54.8614 2.38797L52.8688 2.56003C52.8584 2.43947 52.8773 2.31817 52.9241 2.20651L54.769 2.97873ZM54.8614 2.38797C54.844 2.18653 54.778 1.99225 54.6691 1.82179L52.9838 2.89883C52.9186 2.79681 52.8792 2.68055 52.8688 2.56003L54.8614 2.38797ZM54.6691 1.82179C54.5601 1.65136 54.4115 1.5099 54.236 1.40949L53.243 3.14555C53.1379 3.08547 53.049 3.00083 52.9838 2.89883L54.6691 1.82179ZM54.236 1.40949C54.0605 1.30909 53.8632 1.25271 53.6611 1.24522L53.587 3.24385C53.4661 3.23937 53.348 3.20563 53.243 3.14555L54.236 1.40949ZM53.624 1.24454H53.6201V3.24454H53.624V1.24454ZM31.0191 49.4689L24.1053 17.5716L22.1507 17.9952L29.0645 49.8926L31.0191 49.4689ZM24.0699 17.4474C24.1022 17.5381 24.1097 17.6114 24.1118 17.6474C24.1129 17.6663 24.1128 17.68 24.1127 17.6862C24.1125 17.6923 24.1123 17.6943 24.1126 17.6897C24.113 17.6847 24.1136 17.6774 24.1149 17.6632C24.1159 17.6518 24.1179 17.63 24.1196 17.6102C24.1214 17.5887 24.1235 17.562 24.1251 17.5323C24.1268 17.5025 24.128 17.4678 24.128 17.4297H22.128C22.128 17.4198 22.1286 17.4192 22.1268 17.4412C22.1265 17.4445 22.1202 17.512 22.1177 17.5476C22.1142 17.5957 22.11 17.6737 22.1152 17.7638C22.1205 17.855 22.1366 17.9805 22.1862 18.1194L24.0699 17.4474ZM24.069 17.0913C24.0398 17.01 24.0438 17.0109 24.0531 17.0532C24.0555 17.064 24.064 17.1033 24.0693 17.1571C24.0716 17.181 24.0767 17.2405 24.0717 17.3168C24.0691 17.3548 24.0625 17.423 24.0407 17.5055C24.0223 17.575 23.9715 17.7404 23.8301 17.9036C23.6582 18.1021 23.3764 18.2625 23.0318 18.2477C22.7469 18.2355 22.5532 18.1074 22.4748 18.0486C22.3205 17.9327 22.241 17.8006 22.2279 17.7795C22.1774 17.6985 22.1513 17.6297 22.144 17.6103C22.1223 17.5528 22.109 17.4999 22.1008 17.4518C22.0929 17.4057 22.0824 17.3223 22.0928 17.2161C22.1023 17.1209 22.1386 16.9043 22.3137 16.6966C22.5219 16.4497 22.8076 16.3531 23.0482 16.3525L23.0534 18.3525C23.3196 18.3518 23.6229 18.2465 23.8428 17.9857C24.0296 17.7641 24.0717 17.5285 24.0832 17.4128C24.0957 17.286 24.0834 17.1804 24.0721 17.1142C24.0604 17.046 24.0419 16.975 24.0155 16.9049C24.0058 16.8792 23.9775 16.8055 23.9251 16.7214C23.9099 16.697 23.8861 16.6611 23.8532 16.6205C23.8239 16.5843 23.7652 16.5165 23.6756 16.4492C23.5969 16.3901 23.4028 16.2618 23.1176 16.2496C22.9648 16.243 22.8048 16.2714 22.6532 16.3418C22.505 16.4106 22.3953 16.5054 22.3185 16.5941C22.1769 16.7575 22.1259 16.9234 22.1073 16.9934C22.0853 17.0765 22.0786 17.1454 22.0761 17.1843C22.0709 17.2623 22.0761 17.3241 22.0787 17.3511C22.0845 17.4109 22.0946 17.4591 22.0996 17.4818C22.1193 17.572 22.1523 17.6716 22.1871 17.7682L24.069 17.0913ZM23.0431 16.3525L2.48046 16.5114L2.49591 18.5114L23.0585 18.3525L23.0431 16.3525ZM2.49104 16.5114C2.21252 16.5106 1.93937 16.588 1.70273 16.7349L2.75743 18.4342C2.67575 18.4849 2.58147 18.5117 2.48533 18.5114L2.49104 16.5114ZM1.70273 16.7349C1.46605 16.8818 1.27543 17.0922 1.15255 17.3422L2.94734 18.2246C2.90493 18.3109 2.83914 18.3835 2.75743 18.4342L1.70273 16.7349ZM1.15255 17.3422C1.02965 17.5921 0.979445 17.8716 1.00764 18.1487L2.99736 17.9462C3.0071 18.0419 2.98977 18.1383 2.94734 18.2246L1.15255 17.3422ZM1.00764 18.1487C1.03583 18.4257 1.14128 18.6894 1.312 18.9095L2.8923 17.6836C2.95124 17.7596 2.98764 17.8506 2.99736 17.9462L1.00764 18.1487ZM1.32116 18.9211L29.5036 54.1638L31.0656 52.9148L2.88315 17.672L1.32116 18.9211ZM29.4931 54.1505C29.686 54.4003 29.9621 54.5464 30.0408 54.5886C30.1064 54.6238 30.1655 54.6519 30.2078 54.6712C30.2294 54.6811 30.2477 54.6891 30.2616 54.6951C30.2686 54.6981 30.2745 54.7006 30.2793 54.7027C30.2817 54.7037 30.2839 54.7046 30.2857 54.7053C30.2866 54.7057 30.2874 54.706 30.2882 54.7063C30.2885 54.7065 30.2889 54.7066 30.2892 54.7068C30.2894 54.7069 30.2896 54.7069 30.2897 54.707C30.2898 54.707 30.2899 54.7071 30.29 54.7071C30.2901 54.7071 30.2902 54.7072 30.6698 53.782C31.0495 52.8569 31.0496 52.8569 31.0497 52.857C31.0497 52.857 31.0498 52.857 31.0499 52.8571C31.05 52.8571 31.0502 52.8572 31.0503 52.8572C31.0506 52.8574 31.0508 52.8575 31.0511 52.8576C31.0515 52.8578 31.052 52.8579 31.0523 52.8581C31.053 52.8584 31.0535 52.8586 31.0538 52.8587C31.0543 52.8589 31.0539 52.8587 31.0528 52.8583C31.0505 52.8573 31.0454 52.8551 31.0384 52.8518C31.0234 52.845 31.0041 52.8357 30.9853 52.8257C30.9646 52.8146 30.9571 52.8092 30.9605 52.8116C30.9629 52.8133 30.9743 52.8214 30.9912 52.8364C31.0069 52.8502 31.0392 52.8805 31.076 52.9281L29.4931 54.1505ZM29.9806 54.5066C30.0808 54.6019 30.1832 54.699 30.2636 54.765C30.2799 54.7784 30.4005 54.8823 30.5657 54.9507C30.6277 54.9763 30.9256 55.0993 31.2888 54.9731C31.7625 54.8085 31.9126 54.3986 31.9489 54.2051C31.9813 54.0323 31.96 53.8923 31.954 53.8526C31.945 53.7944 31.9329 53.7467 31.9262 53.7218C31.9136 53.6744 31.8969 53.6227 31.8913 53.6051C31.8737 53.5496 31.8644 53.5181 31.8581 53.4881L29.9003 53.8968C29.9293 54.0354 29.9665 54.1518 29.985 54.2101C29.9975 54.2495 29.9962 54.2463 29.9938 54.2371C29.9922 54.2313 29.9839 54.2003 29.9771 54.1559C29.9731 54.13 29.9523 54.0011 29.9832 53.8366C30.0179 53.6511 30.1646 53.2465 30.6324 53.0839C30.9897 52.9597 31.2795 53.0816 31.3306 53.1027C31.4207 53.14 31.4812 53.1817 31.4966 53.1924C31.5191 53.208 31.5325 53.2191 31.5328 53.2194C31.5332 53.2196 31.5209 53.2093 31.4867 53.1778C31.4548 53.1483 31.4137 53.1094 31.3591 53.0575L29.9806 54.5066ZM31.8581 53.4881C31.8196 53.3034 31.8502 53.4503 31.8201 53.3062L29.8623 53.7149C29.8913 53.8533 29.8629 53.7176 29.9003 53.8967L31.8581 53.4881ZM31.8201 53.3062C31.8104 53.2593 31.8099 53.241 31.7838 53.0962C31.7667 53.0009 31.7356 52.8378 31.6811 52.6823L29.7938 53.3444C29.7903 53.3343 29.7922 53.3379 29.7978 53.362C29.8029 53.3842 29.8087 53.413 29.8154 53.4502C29.8223 53.4885 29.8282 53.5245 29.8358 53.5698C29.8423 53.6083 29.8516 53.6634 29.8624 53.7149L31.8201 53.3062ZM31.7164 52.809L31.0207 49.4764L29.0629 49.8851L29.7586 53.2177L31.7164 52.809ZM62.762 16.5114H47.0196V18.5114H62.762V16.5114ZM47.0199 16.5114C46.9623 16.5114 45.7356 16.5193 44.5157 16.5346C43.9051 16.5422 43.2914 16.5518 42.8236 16.5631C42.5907 16.5688 42.3877 16.5751 42.2373 16.5821C42.1637 16.5855 42.0921 16.5896 42.0321 16.5949C42.0041 16.5973 41.9626 16.6014 41.9185 16.6082C41.8978 16.6114 41.8583 16.618 41.8112 16.63C41.8062 16.6313 41.6397 16.6674 41.4724 16.786L42.6292 18.4176C42.5289 18.4886 42.4391 18.5239 42.4045 18.5368C42.3608 18.5532 42.3251 18.563 42.305 18.5681C42.265 18.5783 42.2349 18.5831 42.2256 18.5845C42.2045 18.5878 42.1946 18.5883 42.2062 18.5873C42.2255 18.5856 42.2652 18.583 42.3306 18.5799C42.4582 18.574 42.6433 18.5681 42.8722 18.5625C43.3279 18.5515 43.9321 18.5421 44.5407 18.5344C45.1484 18.5268 45.7571 18.5211 46.2204 18.5172C46.4519 18.5153 46.647 18.5138 46.7873 18.5128C46.8574 18.5123 46.9137 18.512 46.954 18.5117C46.9741 18.5116 46.9901 18.5115 47.0017 18.5115C47.0146 18.5114 47.0194 18.5114 47.0194 18.5114L47.0199 16.5114ZM41.4724 16.786C41.1513 17.0137 41.0591 17.3331 41.0305 17.486C41.0022 17.6379 41.009 17.772 41.0113 17.8171C41.0126 17.8444 41.0147 17.8756 41.0153 17.8851C41.0163 17.901 41.0162 17.9011 41.016 17.8959C41.0159 17.8912 41.0154 17.8656 41.0189 17.8281C41.0223 17.7927 41.0315 17.7208 41.0626 17.632L42.9501 18.2933C42.9896 18.1805 43.0039 18.0812 43.0101 18.0158C43.0164 17.9485 43.0164 17.8906 43.0156 17.8521C43.0147 17.8132 43.0125 17.7782 43.0113 17.7585C43.0096 17.7324 43.0093 17.7276 43.0089 17.7194C43.0086 17.7137 43.0093 17.7235 43.0088 17.7414C43.0084 17.7584 43.0067 17.7989 42.9966 17.853C42.9789 17.9477 42.9088 18.2193 42.6292 18.4176L41.4724 16.786ZM41.0287 17.7522L34.1286 49.8029L36.0838 50.2238L42.9839 18.1731L41.0287 17.7522ZM34.1633 49.6803C34.1309 49.7722 34.1011 49.9109 34.0879 49.9706C34.0659 50.0698 34.0383 50.1997 34.0075 50.3478C33.9456 50.6449 33.8678 51.0283 33.79 51.415C33.6331 52.1959 33.4782 52.9797 33.4445 53.1445L35.4038 53.5457C35.438 53.3788 35.5972 52.5731 35.7508 51.8092C35.8283 51.4236 35.905 51.0458 35.9654 50.7557C35.9957 50.6103 36.0213 50.49 36.0406 50.4029C36.0686 50.2765 36.0681 50.2927 36.0492 50.3464L34.1633 49.6803ZM33.4445 53.1445C33.4294 53.2184 33.411 53.3083 33.3963 53.3797C33.389 53.4154 33.3827 53.4465 33.3781 53.4686C33.3759 53.4797 33.3741 53.4886 33.3728 53.4946C33.3722 53.4977 33.3717 53.5 33.3714 53.5016C33.3712 53.5024 33.3711 53.503 33.371 53.5034C33.371 53.5036 33.3709 53.5038 33.3709 53.5039C33.3709 53.5039 33.3709 53.5039 33.3709 53.504C33.3709 53.504 33.3709 53.504 33.3709 53.504C33.3709 53.504 33.3709 53.504 33.3709 53.504C33.3709 53.504 33.3709 53.504 34.3506 53.7046C35.3303 53.9051 35.3303 53.9051 35.3303 53.9051C35.3303 53.9051 35.3303 53.9051 35.3303 53.9051C35.3303 53.9051 35.3303 53.9051 35.3303 53.9051C35.3303 53.9051 35.3303 53.905 35.3303 53.905C35.3303 53.9049 35.3303 53.9047 35.3304 53.9045C35.3305 53.9041 35.3306 53.9035 35.3308 53.9027C35.3311 53.9011 35.3316 53.8988 35.3322 53.8957C35.3334 53.8897 35.3352 53.8808 35.3375 53.8697C35.342 53.8476 35.3484 53.8165 35.3557 53.7808C35.3703 53.7094 35.3887 53.6195 35.4039 53.5456L33.4445 53.1445ZM33.3709 53.504L33.2693 54.0003L35.2286 54.4015L35.3303 53.9051L33.3709 53.504ZM34.249 54.2009C35.0256 54.8308 35.0256 54.8308 35.0256 54.8308C35.0257 54.8308 35.0257 54.8308 35.0257 54.8308C35.0257 54.8308 35.0257 54.8307 35.0257 54.8307C35.0258 54.8306 35.0259 54.8305 35.026 54.8304C35.0262 54.8301 35.0266 54.8297 35.027 54.8291C35.0279 54.8281 35.0292 54.8264 35.0309 54.8243C35.0343 54.8202 35.0393 54.814 35.0456 54.8061C35.0584 54.7904 35.0767 54.7678 35.099 54.7403C35.1435 54.6854 35.2039 54.6107 35.2675 54.5319C35.3908 54.3792 35.5374 54.1971 35.5945 54.1236L34.0144 52.8975C33.9722 52.9518 33.841 53.115 33.7114 53.2755C33.6486 53.3533 33.5888 53.4272 33.5446 53.4817C33.5226 53.509 33.5045 53.5313 33.4919 53.5469C33.4856 53.5546 33.4807 53.5607 33.4773 53.5648C33.4757 53.5668 33.4744 53.5684 33.4735 53.5695C33.4731 53.57 33.4728 53.5704 33.4726 53.5706C33.4725 53.5708 33.4724 53.5709 33.4724 53.5709C33.4723 53.571 33.4723 53.571 33.4723 53.571C33.4723 53.571 33.4723 53.571 33.4723 53.571C33.4723 53.571 33.4723 53.571 34.249 54.2009ZM35.5834 54.1375L63.9271 18.9236L62.3691 17.6695L34.0254 52.8835L35.5834 54.1375ZM63.9382 18.9095C64.1089 18.6894 64.2144 18.4258 64.2426 18.1487L62.2529 17.9462C62.2626 17.8506 62.299 17.7596 62.3579 17.6836L63.9382 18.9095ZM64.2426 18.1487C64.2708 17.8716 64.2206 17.5921 64.0977 17.3422L62.3029 18.2246C62.2605 18.1383 62.2431 18.0419 62.2529 17.9462L64.2426 18.1487ZM64.0977 17.3422C63.9748 17.0922 63.7841 16.8818 63.5475 16.7349L62.4928 18.4342C62.4111 18.3835 62.3453 18.3109 62.3029 18.2246L64.0977 17.3422ZM63.5475 16.7349C63.3108 16.5881 63.0377 16.5106 62.7592 16.5114L62.7649 18.5114C62.6687 18.5117 62.5745 18.4849 62.4928 18.4342L63.5475 16.7349ZM32.6321 6.34964L40.6664 16.1209L42.2112 14.8507L34.177 5.07942L32.6321 6.34964ZM40.6388 16.0858C40.5857 16.015 40.5533 15.9308 40.5454 15.8426L42.5373 15.663C42.5119 15.3813 42.4086 15.1121 42.2388 14.8858L40.6388 16.0858ZM40.5454 15.8426C40.5375 15.7545 40.5542 15.6659 40.5938 15.5867L42.3826 16.4812C42.5092 16.2281 42.5627 15.9448 42.5373 15.663L40.5454 15.8426ZM40.5938 15.5867C40.6334 15.5076 40.6942 15.441 40.7695 15.3945L41.821 17.0958C42.0617 16.947 42.2561 16.7342 42.3826 16.4812L40.5938 15.5867ZM40.7695 15.3945C40.8448 15.3479 40.9315 15.3233 41.02 15.3233V17.3233C41.303 17.3233 41.5803 17.2445 41.821 17.0958L40.7695 15.3945ZM41.02 15.3233H23.9898V17.3233H41.02V15.3233ZM23.9898 15.3233C24.0783 15.3233 24.165 15.3479 24.2403 15.3945L23.1889 17.0958C23.4295 17.2445 23.7068 17.3233 23.9898 17.3233L23.9898 15.3233ZM24.2403 15.3945C24.3156 15.441 24.3764 15.5076 24.416 15.5867L22.6272 16.4812C22.7537 16.7342 22.9482 16.947 23.1889 17.0958L24.2403 15.3945ZM24.416 15.5867C24.4556 15.6659 24.4723 15.7545 24.4644 15.8426L22.4725 15.663C22.4471 15.9448 22.5006 16.2281 22.6272 16.4812L24.416 15.5867ZM24.4644 15.8426C24.4565 15.9308 24.4241 16.015 24.371 16.0858L22.771 14.8858C22.6013 15.1121 22.4979 15.3813 22.4725 15.663L24.4644 15.8426ZM24.3067 16.1631L33.3027 6.39185L31.8314 5.03721L22.8353 14.8085L24.3067 16.1631ZM33.367 6.31453C33.3227 6.37371 33.2651 6.42175 33.1989 6.45484L32.3045 4.66598C32.0929 4.77175 31.9089 4.92533 31.767 5.11452L33.367 6.31453ZM33.1989 6.45484C33.1327 6.48793 33.0598 6.50515 32.9858 6.50515V4.50515C32.7493 4.50515 32.516 4.56022 32.3045 4.66598L33.1989 6.45484ZM32.9858 6.50515C32.9118 6.50515 32.8388 6.48793 32.7727 6.45484L33.6671 4.66598C33.4556 4.56022 33.2223 4.50515 32.9858 4.50515V6.50515ZM32.7727 6.45484C32.7065 6.42176 32.6489 6.37373 32.6046 6.31453L34.2045 5.11452C34.0626 4.92531 33.8786 4.77175 33.6671 4.66598L32.7727 6.45484ZM33.1109 59.4894L24.2466 17.9999L22.2907 18.4178L31.155 59.9073L33.1109 59.4894ZM24.2118 17.8764C24.2371 17.9482 24.2448 18.0251 24.2343 18.1005L22.2534 17.8247C22.2199 18.066 22.2446 18.3117 22.3256 18.5414L24.2118 17.8764ZM24.2343 18.1005C24.2238 18.176 24.1954 18.2478 24.1514 18.31L22.5186 17.1551C22.3779 17.3539 22.287 17.5836 22.2534 17.8247L24.2343 18.1005ZM24.1514 18.31C24.1074 18.3722 24.0491 18.423 23.9815 18.458L23.0617 16.6821C22.8454 16.7941 22.6592 16.9563 22.5186 17.1551L24.1514 18.31ZM23.9815 18.458C23.9138 18.493 23.8388 18.5113 23.7626 18.5114L23.7614 16.5114C23.5179 16.5115 23.2779 16.5701 23.0617 16.6821L23.9815 18.458ZM23.762 18.5114H41.4882V16.5114H23.762V18.5114ZM41.4876 18.5114C41.4114 18.5113 41.3364 18.493 41.2687 18.458L42.1885 16.6821C41.9723 16.5701 41.7324 16.5115 41.4888 16.5114L41.4876 18.5114ZM41.2687 18.458C41.2011 18.423 41.1428 18.3722 41.0988 18.31L42.7317 17.1551C42.591 16.9563 42.4048 16.7941 42.1885 16.6821L41.2687 18.458ZM41.0988 18.31C41.0548 18.2478 41.0264 18.176 41.0159 18.1005L42.9968 17.8247C42.9632 17.5836 42.8723 17.3539 42.7317 17.1551L41.0988 18.31ZM41.0159 18.1005C41.0054 18.0251 41.0131 17.9482 41.0385 17.8764L42.9247 18.5414C43.0056 18.3117 43.0304 18.0659 42.9968 17.8247L41.0159 18.1005ZM41.0036 18.0001L32.1456 59.4896L34.1015 59.9072L42.9595 18.4177L41.0036 18.0001ZM32.1811 59.3642C32.214 59.2713 32.2748 59.191 32.3553 59.1342L33.5092 60.7677C33.7663 60.5861 33.9609 60.3293 34.0661 60.0326L32.1811 59.3642ZM32.3553 59.1342C32.4973 59.0339 32.6417 58.9956 32.7476 58.9836C32.8421 58.9729 32.9095 58.9829 32.9167 58.9839C32.9228 58.9848 32.9243 58.9852 32.9138 58.9833C32.9102 58.9826 32.8821 58.9775 32.8631 58.9742C32.8216 58.9671 32.7252 58.951 32.6101 58.951V60.951C32.5492 60.951 32.509 60.9427 32.5243 60.9453C32.5336 60.9469 32.534 60.947 32.5588 60.9515C32.5767 60.9547 32.6065 60.96 32.6406 60.9648C32.7418 60.9789 33.1339 61.0328 33.5092 60.7677L32.3553 59.1342ZM32.6101 58.951C32.4888 58.951 32.3904 58.9685 32.3385 58.9788C32.315 58.9835 32.2893 58.9891 32.2854 58.99C32.2755 58.9921 32.2823 58.9905 32.2943 58.9885C32.3167 58.9847 32.4061 58.9701 32.5254 58.9859C32.6593 59.0036 32.7913 59.0537 32.9052 59.1342L31.7513 60.7677C31.9093 60.8794 32.0851 60.9451 32.2632 60.9686C32.4268 60.9903 32.5609 60.9718 32.6292 60.9602C32.6642 60.9543 32.6943 60.9478 32.708 60.9448C32.7194 60.9424 32.718 60.9426 32.7246 60.9412C32.7281 60.9405 32.7284 60.9404 32.7273 60.9406C32.7245 60.9412 32.6774 60.951 32.6101 60.951V58.951ZM32.9052 59.1342C32.9856 59.191 33.0465 59.2713 33.0794 59.3642L31.1944 60.0326C31.2996 60.3293 31.4941 60.5861 31.7513 60.7677L32.9052 59.1342ZM32.1369 58.6984H32.133V60.6984H32.1369V58.6984Z" fill="#0C003E" mask="url(#path-1-inside-1_50_6)"/>
</svg>
